<mxfile host="app.diagrams.net" modified="2023-08-24T08:17:40.377Z" agent="Mozilla/5.0 (Windows NT 10.0; Win64; x64) AppleWebKit/537.36 (KHTML, like Gecko) Chrome/116.0.0.0 Safari/537.36" version="21.6.3" etag="H5J-mVglr_Wi5bXS5JXr" type="github">
  <diagram name="Page-1" id="fD_huHHHBC4vEDIoIOct">
    <mxGraphModel>
      <root>
        <mxCell id="0" />
        <mxCell id="1" parent="0" />
      </root>
    </mxGraphModel>
  </diagram>
</mxfile>
